<?xml version="1.0" encoding="UTF-8" standalone="no"?>
<svg width="16px" height="16px" viewBox="0 0 16 16" version="1.1" xmlns="http://www.w3.org/2000/svg" xmlns:xlink="http://www.w3.org/1999/xlink">
    <!-- Generator: Sketch 3.6.1 (26313) - http://www.bohemiancoding.com/sketch -->
    <title>search</title>
    <desc>Created with Sketch.</desc>
    <defs></defs>
    <g id="Page-1" stroke="none" stroke-width="1" fill="none" fill-rule="evenodd">
        <g id="search" fill="#D2D6DE">
            <g id="Group">
                <g id="a-link">
                    <g id="a">
                        <path d="M12,6 C12.0001894,4.34003314 11.4123106,2.92185133 10.2363636,1.74545455 C9.07237216,0.581912879 7.66025095,9.46969697e-05 6,0 C4.34015152,0.000307765152 2.9219697,0.582125947 1.74545455,1.74545455 C0.582125947,2.9219697 0.000307765152,4.34015152 0,6 C9.46969697e-05,7.66025095 0.581912879,9.07237216 1.74545455,10.2363636 C2.92185133,11.4123106 4.34003314,12.0001894 6,12 C7.66036932,12.0004025 9.07249053,11.4125237 10.2363636,10.2363636 C11.080161,9.40492424 11.6195549,8.44128788 11.8545455,7.34545455 L11.8545455,7.33636364 C11.9508286,6.90899621 11.9993134,6.46354167 12,6 L12,6 Z M9.46363636,2.51818182 C10.4270597,3.4811553 10.9088778,4.64176136 10.9090909,6 C10.9097775,6.38494318 10.8703835,6.75464015 10.7909091,7.10909091 C10.5944366,8.00222538 10.1520123,8.78707386 9.46363636,9.46363636 C8.51238163,10.4268703 7.35783617,10.9086884 6,10.9090909 C4.64176136,10.9088778 3.4811553,10.4270597 2.51818182,9.46363636 C1.56657197,8.51247633 1.09081439,7.35793087 1.09090909,6 C1.09060133,4.64166667 1.5663589,3.48106061 2.51818182,2.51818182 C3.48106061,1.5663589 4.64166667,1.09060133 6,1.09090909 C7.35793087,1.09081439 8.51247633,1.56657197 9.46363636,2.51818182 L9.46363636,2.51818182 Z M16,15.0909091 C15.9993608,14.8405066 15.9084517,14.6253551 15.7272727,14.4454545 L12.0909091,10.8090909 C11.9170691,10.6339725 11.7049479,10.5460937 11.4545455,10.5454545 C11.204143,10.5460937 10.9889915,10.6339725 10.8090909,10.8090909 C10.6339725,10.9889915 10.5460937,11.204143 10.5454545,11.4545455 C10.5460937,11.7049479 10.6339725,11.9170691 10.8090909,12.0909091 L14.4454545,15.7272727 C14.6253551,15.9084517 14.8405066,15.9993608 15.0909091,16 C15.3413116,15.9993608 15.5534328,15.9084517 15.7272727,15.7272727 C15.9084517,15.5534328 15.9993608,15.3413116 16,15.0909091 L16,15.0909091 Z" id="Shape"></path>
                    </g>
                </g>
            </g>
        </g>
    </g>
</svg>